<svg width="256" height="256" viewBox="0 0 256 256" fill="none" xmlns="http://www.w3.org/2000/svg">
<g clip-path="url(#clip0_1118_160)">
<path d="M60 0H196C229.1 0 256 26.9 256 60V196C256 229.1 229.1 256 196 256H60C26.9 256 0 229.1 0 196V60C0 26.9 26.9 0 60 0Z" fill="#F4F2ED"/>
<g clip-path="url(#clip1_1118_160)">
<path d="M49.2432 114.493C43.1525 117.336 27.0312 130.131 23.926 133.923C20.7017 137.715 19.7465 131.791 23.0906 121.957C25.7166 114.019 32.4055 103.238 43.6309 93.9962C50.1984 88.6652 64.6489 80.9643 73.4854 76.4613C75.2777 75.5137 98.4457 65.7986 119.106 60.9407C120.897 60.4669 116.956 63.9025 116.359 65.7986C113.254 74.8029 51.2735 113.426 51.2735 113.426L49.2432 114.493ZM136.541 223.133C137.616 229.532 136.661 230.005 129.973 230.835C123.285 231.665 118.389 229.176 116.599 227.517C114.806 225.858 114.449 222.186 116.24 218.869C117.315 216.736 118.39 216.025 118.987 213.419C119.584 210.931 120.063 210.338 120.54 209.391C121.016 208.561 121.137 207.732 121.256 201.927C121.376 196.121 121.256 185.222 121.853 180.601C122.451 175.863 143.111 182.734 143.111 182.734C143.111 182.734 138.214 194.818 136.9 197.78C135.587 200.742 135.706 206.428 135.706 207.613C135.706 208.799 135.229 211.167 134.87 211.286C134.512 211.404 136.065 214.485 135.348 216.262C134.869 217.921 136.422 222.186 136.541 223.133ZM144.424 41.9795C143.707 37.4782 144.424 28.5911 145.378 27.1696C148.365 23.1413 164.127 22.6683 167.472 27.4065C168.905 29.5387 168.786 34.5155 168.547 37.7143C168.308 40.913 167.472 47.7843 167.353 50.037C167.234 51.6946 149.918 54.3014 146.096 49.7993C145.021 48.6147 144.424 41.9795 144.424 41.9795ZM179.534 211.635C186.819 216.849 192.432 217.797 196.133 219.692C199.835 221.588 198.88 225.261 192.67 226.327C187.654 227.275 179.772 225.38 174.519 225.38C169.264 225.38 157.56 225.972 154.455 223.839C150.872 221.352 152.424 216.73 152.424 216.73C153.38 214.125 155.768 208.319 155.052 203.579C154.335 198.841 153.38 196.234 151.588 191.85C149.797 187.468 148.484 176.686 150.156 176.093C151.828 175.499 151.349 176.093 153.499 176.567C155.649 177.04 158.037 177.751 162.694 177.751C167.352 177.751 172.487 177.04 174.278 176.685C176.07 176.33 177.503 175.974 176.905 179.647C176.309 183.32 174.517 190.191 174.397 195.523C174.278 200.854 174.278 207.015 174.637 208.082C174.995 209.147 177.623 210.333 179.533 211.635H179.534Z" fill="#010101"/>
<path d="M153.976 53.8325C140.84 65.0879 115.402 68.1686 77.6664 82.6227C67.9928 86.2953 42.198 97.3146 35.9883 108.806C56.8873 96.8399 64.6496 113.308 66.3212 130.25C67.8739 146.126 75.875 154.42 96.4154 153.946C117.553 153.473 124.002 165.675 129.854 180.011C141.199 125.156 159.351 114.494 171.053 105.134C195.894 85.1115 165.322 49.8049 153.977 53.8333L153.976 53.8325Z" fill="#8AC640"/>
<path d="M153.978 53.8324C122.451 64.732 91.2806 67.4569 54.6173 89.8496C45.8998 95.1814 27.5095 107.265 23.9258 130.368C37.3004 115.676 68.2308 97.1948 106.089 85.4655C125.196 79.5419 139.169 75.6316 156.127 69.1161C154.934 61.5324 154.934 58.5714 153.978 53.8324Z" fill="#8AC640"/>
<path d="M194.222 118.754C194.222 118.754 191.954 126.456 187.416 128.944C187.416 128.944 184.072 130.129 177.384 126.457C175.473 125.39 174.04 121.718 174.159 120.532C174.279 117.688 176.071 116.386 176.071 116.386C176.071 116.386 177.982 113.186 180.25 113.305C182.519 113.423 186.341 113.779 187.536 112.712C188.61 111.528 194.461 114.844 194.222 118.754ZM145.498 44.2324C145.498 44.2324 145.021 50.2757 144.185 54.0663C144.065 54.7778 140.483 55.1336 137.855 56.1993C142.871 70.4165 173.085 70.2977 177.026 63.3083C175.115 62.0049 171.294 59.9907 169.503 59.28C167.712 58.5684 167.831 58.6873 167.712 55.3705C167.593 52.0521 167.353 45.8924 167.114 44.2332C166.875 42.574 148.365 42.574 145.499 44.2332L145.498 44.2324Z" fill="#010101"/>
<path d="M146.689 44.2353C146.689 44.2353 146.689 47.6718 146.331 50.9886C146.213 52.5289 146.093 53.4766 145.854 54.6611C145.735 55.3727 149.915 58.2156 151.109 64.495C156.841 77.1719 170.097 70.8933 175.59 64.8508C173.68 63.5474 170.575 61.7701 166.993 60.3487C165.201 59.6371 166.037 58.0976 165.918 54.78C165.799 51.4632 165.321 46.6053 165.082 44.828C164.843 43.0516 149.556 42.5777 146.69 44.2361L146.689 44.2353Z" fill="#F0EFEF"/>
<path d="M145.496 44.2355C145.496 44.2355 145.377 46.3685 145.02 48.8565C146.571 50.3961 148.602 52.5291 150.154 53.8325C151.23 54.781 153.856 54.6621 156.245 54.6621C158.395 54.6621 160.305 54.899 161.142 54.4252C163.053 53.4775 165.799 51.1084 167.352 49.3312C167.232 47.1981 167.113 45.184 166.994 44.2355C166.873 42.5771 148.361 42.5771 145.496 44.2355Z" fill="#010101"/>
<path d="M156.364 53.2398C154.931 53.2398 153.258 53.1217 151.945 52.884C151.348 52.7668 150.751 52.411 150.273 52.1741C149.437 51.5814 148.6 50.8707 147.646 50.1599C145.735 48.7384 145.617 47.9088 145.617 47.5539C146.452 40.0891 145.377 33.8105 145.377 33.8105C145.377 33.8105 144.541 30.6117 149.079 29.7821C153.617 28.9525 156.364 28.8345 156.364 28.8345C156.364 28.8345 159.23 28.8345 163.648 29.7821C168.186 30.6117 167.35 33.8105 167.35 33.8105C167.35 33.8105 166.275 40.0899 167.111 47.5539C167.111 47.9088 166.992 48.7384 165.081 50.1599C163.409 51.3445 162.096 52.6471 160.783 52.8848C159.468 53.1217 157.796 53.2398 156.364 53.2398Z" fill="#010101"/>
<path d="M156.363 25.7539C148.481 25.7539 146.928 27.8861 144.659 30.2561C144.182 30.8479 144.54 34.4025 145.376 41.9853H146.451C146.451 41.9853 145.734 39.8523 145.854 37.3643C145.973 34.8763 146.451 34.9951 146.092 34.4025C145.615 33.6909 144.659 32.5063 146.81 31.3218C148.959 30.1372 152.303 32.2694 156.363 32.3883C160.423 32.2694 163.886 30.1372 166.035 31.3218C168.185 32.5063 167.23 33.6909 166.753 34.4025C166.275 35.114 166.872 34.8763 166.991 37.3643C167.11 39.8523 166.394 41.9853 166.394 41.9853H167.468C168.185 34.4025 168.663 31.0857 168.304 30.493C166.275 27.8861 164.245 25.872 156.363 25.7547V25.7539ZM194.219 119.112C194.219 119.112 191.951 126.339 187.532 128.827C186.577 128.354 186.696 127.643 185.86 126.576C185.62 126.221 184.784 125.984 184.427 125.629C184.069 125.273 184.188 124.68 183.591 124.207C183.113 123.733 182.755 124.088 182.277 123.733C181.8 123.26 181.68 122.667 181.322 122.312C181.083 122.075 180.128 121.956 179.889 121.719C179.292 121.126 174.037 120.061 174.277 118.875C174.754 117.098 175.71 115.795 175.71 115.795C175.71 115.795 177.979 112.478 180.247 112.596C182.516 112.715 184.666 113.189 185.86 112.122C187.174 110.937 194.578 115.321 194.219 119.112Z" fill="#010101"/>
<path d="M178.696 66.7465C178.696 66.7465 186.219 64.9692 191.355 69.8272C196.49 74.8032 196.132 80.9637 194.58 84.7551C195.893 86.2955 198.282 90.5607 196.49 95.6548C204.372 102.289 200.909 112.479 193.863 119.233C193.863 119.233 192.191 113.072 185.504 112.716C185.743 110.347 179.293 108.451 182.279 102.289C177.741 101.223 177.861 98.1428 177.144 94.3522C176.547 90.5599 178.696 66.7465 178.696 66.7465Z" fill="#010101"/>
<path d="M175.946 70.0646C175.946 70.0646 184.664 65.6805 189.799 70.6564C194.934 75.6332 193.501 81.0822 191.949 84.8737C193.262 86.414 196.367 90.7981 194.456 96.0102C194.098 97.1956 191.471 97.1956 189.56 100.276C194.336 97.5505 197.323 98.2613 198.397 101.697C200.07 107.029 196.367 113.426 193.143 116.981C193.143 116.862 193.024 116.743 193.024 116.625C192.546 118.403 191.949 121.838 188.367 125.629C186.574 127.525 185.142 127.288 183.111 126.815C180.723 126.222 179.887 125.155 176.544 123.378C174.633 122.312 175.708 121.009 175.708 119.942C175.708 119.706 175.946 119.35 176.305 118.877C176.544 118.284 177.26 117.336 178.334 116.27C178.334 116.27 179.887 114.138 182.157 114.256C184.426 114.375 186.814 113.901 187.411 113.308C187.411 109.162 182.635 109.043 184.306 101.935C184.426 101.579 185.023 100.986 186.934 100.75C184.067 100.157 182.753 100.039 180.723 98.1432C179.29 96.8406 178.215 95.1814 177.857 93.0492C177.141 89.3766 175.946 70.0646 175.946 70.0646Z" fill="#F0EFEF"/>
<path d="M150.746 62.5997C150.03 61.6521 146.329 56.913 139.282 55.0177C137.253 54.425 135.939 56.0834 133.909 57.2688C133.311 56.913 130.684 55.7284 129.252 56.5572C127.819 57.386 126.864 58.2164 125.43 58.8083C124.713 58.4525 122.803 58.4525 121.25 59.0452C119.698 59.519 117.309 60.5856 115.04 63.6654C113.607 68.7603 140.357 64.9689 140.357 64.9689L150.746 62.5997Z" fill="#010101"/>
<path d="M150.992 62.5999C147.169 61.2965 147.768 56.9132 139.288 56.2024C137.616 56.0836 136.541 57.387 135.347 58.2158C135.945 58.8093 136.541 59.7561 136.9 60.7038C135.825 59.52 133.915 57.9789 132.003 57.6231C130.212 57.2689 129.018 58.5716 127.107 59.52C127.465 59.8742 127.824 60.4669 128.301 61.1784C126.628 60.1127 125.435 59.7569 123.166 60.5857C121.613 61.0595 118.628 62.363 116.359 65.5617C114.926 70.6566 140.482 64.969 140.482 64.969L150.992 62.5999Z" fill="#8AC640"/>
<path d="M173.438 64.495C173.438 64.495 173.438 63.1916 173.319 62.0078C173.319 61.7709 172.364 61.1782 172.364 60.9413L172.125 60.7044C172.125 60.7044 174.036 59.6379 175.469 60.2306C177.021 60.7044 177.857 62.7186 177.857 62.7186C180.604 61.7709 180.843 62.8374 182.156 64.2589C185.023 63.6662 185.381 64.7319 187.172 67.3396C187.172 67.3396 185.023 66.9838 180.843 67.6937C176.782 68.2864 173.438 64.377 173.438 64.495Z" fill="#010101"/>
<path d="M172.967 63.9032C172.967 63.9032 173.684 63.3097 173.444 63.1917C174.757 62.4801 176.55 61.6521 177.386 63.9032C180.132 62.9548 180.491 64.2582 181.803 65.6805C185.147 64.1401 185.386 66.0354 185.626 66.8642C184.55 66.8642 182.999 66.9831 180.849 67.22C176.788 67.8127 172.848 63.7836 172.968 63.9024L172.967 63.9032Z" fill="#8AC640"/>
<path d="M132.362 60.9407C132.362 60.9407 139.169 63.3099 144.901 62.9541C150.634 62.4811 160.426 62.0081 165.68 65.0879C165.68 65.0879 171.054 63.1918 176.07 64.4953C181.087 65.7979 190.282 74.3292 187.535 83.3327C187.296 83.9254 185.744 84.873 183.952 85.4657C183.952 85.4657 184.908 89.4933 183.236 92.8109C181.564 96.0096 177.862 102.171 177.742 110.701C177.623 112.122 177.385 115.083 177.146 116.505C167.83 116.15 153.5 112.714 139.408 112.952C139.527 111.411 139.646 110.464 139.767 108.923H140.124C139.408 105.013 139.169 102.999 138.452 100.037C133.914 97.1942 129.137 93.8766 125.077 87.5971C121.136 81.3177 132.362 60.9399 132.362 60.9399L132.362 60.9407ZM178.458 124.918C178.458 124.918 185.863 151.221 177.145 162.239C177.145 162.239 178.458 167.333 175.473 172.783C174.995 175.152 174.398 177.285 174.04 179.655C172.487 189.488 169.86 193.635 169.143 209.392L161.977 209.274C161.977 209.274 161.141 197.9 158.634 191.858C157.201 188.423 151.587 183.801 151.828 179.181C152.066 175.626 152.782 172.664 158.874 167.925C159.351 161.054 152.424 154.537 153.499 128.946L178.458 124.918Z" fill="#010101"/>
<path d="M176.305 123.848C178.216 135.932 182.634 153.823 174.633 162.589C175.105 164.813 175.146 167.105 174.752 169.343C174.513 170.764 174.035 172.305 173.438 173.963C172.244 176.807 171.767 180.953 171.409 183.441C169.856 193.275 169.856 193.75 169.139 209.506L161.973 209.388C161.973 209.388 161.138 198.014 158.63 191.972C157.197 188.537 154.212 185.575 153.973 180.954C153.734 177.4 156.242 170.291 162.214 170.528C161.855 156.193 155.168 159.036 153.377 129.18L176.305 123.848ZM132.359 60.9375C132.359 60.9375 134.985 61.7671 137.852 62.0048C140.717 62.2409 143.823 62.0048 146.569 61.8852C152.301 61.4121 160.422 60.8194 165.796 63.8993C165.796 63.8993 168.781 62.9517 172.006 63.1878C173.439 63.3066 174.873 64.492 176.545 64.9658C181.798 66.2685 186.814 74.9178 184.545 82.7376C184.306 83.3303 182.634 82.7376 180.723 83.3303C181.081 84.9895 181.321 88.7801 179.409 92.8084C177.38 96.8367 174.752 102.05 175.23 112.002C162.691 111.409 157.078 110.58 144.658 109.987C143.583 105.603 142.866 101.22 142.747 98.969C144.419 98.1394 145.374 97.4294 146.688 96.0071C143.106 96.5998 141.673 96.3629 139.523 95.1775C137.373 93.993 133.552 90.2015 131.641 87.7144C131.403 87.4766 130.089 91.3853 127.103 91.505C126.028 89.9646 130.566 85.5805 129.73 83.9221C126.745 77.8796 132.359 60.9375 132.359 60.9375Z" fill="#F0EFEF"/>
<path d="M177.26 114.016C177.26 114.016 177.498 118.282 177.498 119.348C177.498 120.532 178.454 124.086 178.573 125.745C177.26 127.996 171.528 133.091 161.138 134.987C150.868 137.119 137.254 121.125 137.254 121.125C137.613 119.584 138.807 115.082 139.642 112.713C139.762 112.477 140.001 111.884 140.001 111.647C141.076 110.107 177.26 114.017 177.26 114.017V114.016Z" fill="#010101"/>
<path d="M174.636 114.371C174.636 117.333 175.113 119.466 175.472 121.362C176.069 124.799 177.024 127.049 177.024 129.3C177.024 136.171 167.947 134.986 160.304 135.224C150.035 137.357 141.316 121.362 141.316 121.362C142.034 118.637 142.511 115.557 143.585 112.951C143.704 111.529 143.944 109.752 144.063 108.922C158.633 108.922 168.903 109.752 174.874 110.344C175.113 111.647 174.874 113.898 174.636 114.372L174.636 114.371Z" fill="#F0EFEF"/>
<path d="M163.167 129.654C163.167 129.654 156.838 115.673 137.85 119.821C133.312 132.498 127.222 147.071 131.162 162.827C127.222 168.159 122.684 171.121 122.684 180.954C122.684 190.788 123.162 192.446 123.162 192.446L137.134 193.158C137.134 193.158 141.672 187.353 143.463 181.074C143.941 179.296 144.419 176.098 144.06 172.425C144.538 171.714 146.568 170.056 146.807 166.857C146.807 166.857 153.614 163.304 157.555 154.655C161.257 146.834 160.301 140.081 163.168 129.654H163.167Z" fill="#010101"/>
<path d="M163.167 129.653C162.81 128.352 158.033 115.555 140.358 119.346C129.969 146.832 133.79 158.207 135.342 163.182C128.296 172.068 125.073 173.963 126.506 191.972H135.821C140.12 185.22 141.075 182.731 141.314 173.845C141.314 173.49 140.001 174.557 139.045 175.742C139.762 172.069 141.792 171.358 143.344 169.107C144.061 168.159 144.658 166.738 144.658 164.842C153.018 159.273 156.122 152.283 157.914 145.056C159.346 140.08 161.019 131.905 163.168 129.654L163.167 129.653Z" fill="#F0EFEF"/>
<path d="M133.674 110.579C133.674 110.579 136.899 110.697 139.765 111.646C142.512 112.592 142.512 113.185 143.587 114.371C144.661 115.556 147.289 117.332 146.811 119.11C146.572 120.057 145.975 120.294 145.139 121.124C144.781 121.48 142.153 124.323 141.557 124.677C141.198 124.914 140.72 125.27 140.362 125.507L138.571 126.692C137.376 127.284 136.54 127.64 135.227 127.521C135.227 127.521 132.242 127.403 130.33 125.389C130.33 125.389 130.092 124.441 130.57 123.968C130.57 123.968 128.061 121.835 127.345 120.413C126.628 118.992 126.628 116.977 127.106 115.912C127.345 114.844 132.002 111.883 133.674 110.579H133.674ZM136.66 225.858L136.301 228.821C136.301 228.821 135.227 230.124 127.226 230.005C119.105 229.887 116.956 227.399 116.239 226.096L115.762 223.015C115.762 223.015 117.314 220.764 117.672 220.764C120.3 221.001 129.256 224.556 135.467 225.502C136.062 225.502 136.181 225.74 136.66 225.858ZM153.976 219.816C153.976 221.119 153.856 221.119 153.856 222.422C155.289 223.489 158.873 224.082 165.679 223.962C175.591 223.726 184.787 226.925 196.012 225.029L196.132 222.896L195.058 222.778L155.29 219.579L153.976 219.816Z" fill="#010101"/>
<path d="M162.696 223.966H165.681C172.131 223.73 178.221 225.152 184.789 225.506C188.253 225.388 192.552 224.559 192.193 222.071L158.278 219.227C156.247 221.478 157.799 223.373 162.696 223.966ZM123.764 174.087C124.839 174.799 132.124 179.064 143.947 178.472C143.708 180.722 143.828 185.106 138.573 192.807C135.946 196.597 133.677 203.233 133.199 211.645C133.319 213.54 134.393 215.199 132.96 217.687C133.438 219.226 135.348 222.307 136.304 224.203C137.26 226.099 137.737 228.231 131.408 228.35C124.958 228.468 114.569 227.758 116.003 222.782C116.72 220.176 118.749 217.45 118.988 216.383C119.227 215.318 119.227 212.119 121.257 209.986C123.049 204.062 122.451 198.375 122.094 193.044C121.496 187.475 121.375 178.59 123.764 174.087ZM134.871 77.5278C143.349 66.2724 136.185 57.2689 122.572 59.993C117.078 61.0603 111.585 64.8518 111.227 71.7222C109.435 71.9592 105.375 72.1961 103.345 79.5412C101.793 85.2287 100.957 86.2952 98.2099 89.1382C96.4185 91.1524 98.3289 95.2996 99.6419 98.2614C104.061 108.449 117.674 109.398 126.87 117.099C129.976 116.269 133.2 112.834 134.155 110.583C126.393 101.46 128.064 97.9064 124.959 93.1665C128.304 91.9812 135.947 87.3609 134.872 77.5286L134.871 77.5278Z" fill="#010101"/>
<path d="M133.194 76.8161C133.671 76.1045 134.507 74.5658 134.866 73.9723C134.986 73.8543 136.299 76.1053 136.419 75.9873C139.643 70.7736 140.479 63.1915 136.777 62.4808C135.94 62.3619 134.388 62.007 133.075 61.5323C130.687 60.7027 128.537 60.7027 124.715 61.4143C119.46 62.3619 114.206 66.1526 114.206 71.6024C114.206 71.9581 117.907 73.0247 118.982 77.408C117.191 74.92 114.085 72.1951 110.383 74.565C106.443 77.053 108.473 82.7397 103.219 88.6634C101.426 90.6767 101.666 93.0475 103.576 97.7857C106.682 105.25 121.371 109.278 129.372 116.386C131.282 115.557 132.596 113.661 133.551 112.24C128.177 106.671 126.028 101.458 124.475 97.6669C122.565 93.2828 120.415 90.7956 116.235 87.4772C118.385 88.306 120.057 89.1356 121.011 89.8463C122.086 90.5579 123.638 90.6759 125.072 90.2021C130.208 88.4264 132.955 81.3174 133.194 76.8161Z" fill="#F0EFEF"/>
<path d="M185.14 78.7122C184.781 83.2144 181.438 80.9633 179.647 80.1345C176.065 78.5942 172.482 77.5277 168.301 77.5277C164.122 77.5277 158.748 77.8834 154.091 79.068C147.642 80.8453 145.732 80.7272 142.865 79.3049C139.999 77.7646 134.984 73.9731 134.984 73.9731C134.984 73.9731 134.864 75.1577 136.059 76.6981C137.611 78.5942 141.075 80.9633 145.732 82.5036C148.001 83.2152 149.792 82.7397 151.822 82.2667C162.451 79.6599 173.676 79.186 183.11 84.8728C183.588 85.1097 185.261 84.3989 185.977 83.3324C186.931 81.7929 185.14 78.7122 185.14 78.7122Z" fill="#010101"/>
<path d="M130.805 123.848C131.76 124.441 132.955 124.797 134.268 125.863C134.268 125.863 133.193 125.863 132.716 125.389C132.119 125.034 130.924 123.967 130.805 123.848Z" fill="#0A1825"/>
<path d="M165.322 29.9001C164.963 28.8344 162.337 26.9375 156.246 26.9375C149.678 26.9375 147.767 28.9525 147.648 30.0182C147.648 30.374 147.171 34.1662 147.051 35.7049C147.051 35.7049 147.051 37.601 147.17 40.444C147.29 42.3393 147.767 43.4058 148.006 45.8938C148.245 48.4998 148.962 50.1591 150.275 52.2921C150.872 52.6462 151.35 53.0028 151.947 53.1209C154.336 53.5947 158.516 53.7136 160.785 53.1209C162.098 52.7651 163.77 50.5148 164.128 48.5007C164.606 46.0127 165.083 44.2354 165.203 42.6951C165.442 41.1555 165.562 37.7199 165.68 36.7714C166.039 34.1654 165.442 30.137 165.323 29.9001H165.322Z" fill="#F0EFEF"/>
<path d="M152.778 176.333C152.778 176.333 159.108 179.058 174.752 176.689C174.752 176.689 170.334 198.726 172.364 209.743C172.364 209.743 174.393 212.587 189.441 218.037C189.441 218.037 196.128 219.696 195.89 223.014C195.89 223.014 196.129 223.725 188.009 223.487C179.888 223.25 172.245 221.828 166.871 221.828C161.497 221.828 155.764 222.065 154.809 220.525C153.735 219.104 155.048 215.431 156.6 213.298C158.273 211.047 157.794 209.388 157.676 205.36C157.316 194.816 149.195 183.917 152.778 176.334V176.333Z" fill="#010101"/>
<path d="M151.464 178.354C150.629 179.539 151.583 184.041 152.778 188.424C153.972 192.808 156.601 195.415 157.197 202.641C157.794 209.75 157.914 210.698 155.883 214.844C153.852 218.99 153.256 222.782 160.301 222.9C167.347 223.019 171.169 222.782 178.334 223.849C185.5 224.915 188.008 225.27 191.948 224.678C195.889 224.086 196.725 222.782 195.054 221.598C193.381 220.413 186.455 219.11 183.469 216.74C180.602 214.607 172.482 211.053 172.363 210.105C172.005 206.906 171.886 195.295 172.482 191.505C173.08 187.713 173.915 182.264 174.155 180.842C174.394 179.421 175.588 177.998 173.557 178.473C171.528 178.946 163.885 180.012 158.152 179.658C152.42 179.302 151.823 177.999 151.464 178.355V178.354Z" fill="#8AC640"/>
<path opacity="0.3" d="M155.524 214.958C157.554 215.906 160.541 216.618 162.81 216.618C162.81 216.618 161.973 220.528 163.287 222.897C164.6 225.266 153.733 223.845 153.733 223.845L153.256 215.433L155.524 214.958ZM187.172 225.147C189.082 224.555 190.396 222.422 188.843 220.409C187.171 218.395 185.738 218.04 187.887 217.921C190.037 217.802 197.919 222.541 197.919 222.541L193.858 226.214L187.172 225.147ZM151.105 182.969C153.852 183.918 158.032 184.155 161.615 184.037C165.198 183.918 170.572 183.443 174.036 182.259C177.498 181.074 176.065 183.562 176.065 183.562L174.154 185.339C174.154 185.339 169.617 187.117 162.212 186.999C153.495 186.88 150.867 185.932 150.867 185.932L151.105 182.969ZM151.344 188.894C154.091 189.842 158.271 190.078 161.854 189.96C165.437 189.842 170.214 189.842 173.677 188.539C175.109 188.065 174.274 190.079 174.274 190.079L173.677 191.145C173.677 191.145 169.02 192.804 161.734 192.685C153.016 192.566 151.465 191.856 151.465 191.856L151.344 188.894Z" fill="#010101"/>
<path d="M143.469 105.841C143.469 106.67 152.785 111.291 157.919 112.239C163.054 113.187 173.802 112.239 175.473 111.883L175.235 113.543C175.235 113.543 162.456 115.438 152.664 112.831C142.871 110.225 143.946 109.632 143.946 109.632L143.469 105.841Z" fill="#010101"/>
<path d="M123.526 206.905C124.959 207.616 130.095 208.92 133.438 208.209C133.916 208.09 133.438 200.034 134.753 196.361C136.663 191.266 139.768 187.119 141.2 178.116C136.185 177.642 130.453 176.338 127.467 175.391C123.646 187.002 124.96 196.953 123.526 206.906L123.526 206.905ZM131.528 214.37C132.364 214.607 132.96 215.554 133.2 214.962C133.677 213.895 132.364 211.882 132.244 210.46V210.341C131.17 209.395 123.884 209.276 124.363 209.749C123.526 211.289 122.213 211.053 121.736 214.133C121.497 215.672 123.408 214.37 125.199 214.251C121.975 216.383 118.273 219.109 117.675 221.478C116.958 224.796 118.153 225.743 121.736 227.521C124.841 228.232 128.543 228.351 131.409 228.232C134.634 227.639 135.231 226.1 134.275 223.967C132.841 220.767 131.886 216.621 131.528 214.369L131.528 214.37Z" fill="#F0EFEF"/>
<path d="M132.833 60.4668C136.774 62.7179 142.268 62.126 144.297 62.0071C144.775 62.0071 149.552 61.1783 149.79 61.2956C150.268 61.4145 150.268 61.7702 150.268 61.7702C150.268 61.7702 148.477 62.7179 144.417 62.954C140.595 63.1909 136.057 62.954 133.55 61.7702C130.565 60.4668 132.833 60.4668 132.833 60.4668ZM173.438 62.7179C174.154 63.1917 178.811 64.969 180.841 67.1012C182.633 68.9981 181.678 68.8792 181.319 68.4054C180.841 67.8127 177.139 65.3247 175.706 64.7329C174.273 64.1402 172.482 63.0737 172.482 62.8367C172.482 62.5998 173.438 62.7179 173.438 62.7179Z" fill="#010101"/>
<path d="M132.237 111.889C135.701 111.653 139.284 112.482 141.553 114.851C142.747 116.036 144.658 117.339 144.419 118.524C144.419 118.879 143.701 119.828 143.106 120.539C142.747 121.012 141.673 122.078 141.314 122.434C140.836 122.79 139.164 124.093 138.806 124.329C138.448 124.567 137.97 125.16 137.612 125.278C136.418 125.87 135.104 125.397 133.91 124.805C132.716 124.211 134.149 124.093 132.835 123.145C129.611 120.894 127.82 119.353 129.133 114.97C129.252 114.14 130.565 113.193 132.237 111.889Z" fill="#F0EFEF"/>
<path opacity="0.4" d="M101.792 84.7537C91.0442 89.0198 63.6959 102.526 55.9336 106.673C62.3829 110.701 65.3676 120.415 66.3236 130.249C66.4426 131.198 66.5624 132.027 66.6822 132.974C66.8012 133.804 66.921 134.396 67.04 134.753C67.04 134.871 67.04 135.108 67.1598 135.226C74.2057 116.152 99.4024 96.0099 100.359 94.4704C100.836 93.7589 99.7618 90.6782 101.433 87.718C103.583 83.9257 107.764 82.2657 101.792 84.7537ZM127.348 174.207C132.841 163.307 132.961 152.88 132.841 140.677C132.841 135.583 136.543 128.355 134.634 130.37C127.468 138.307 109.435 153.236 96.4185 154.065C114.69 153.473 121.855 162.596 127.348 174.207Z" fill="#010101"/>
<path d="M45.4219 116.741C52.229 111.883 87.4586 93.2837 95.9374 90.6761C104.416 87.9512 101.789 84.7524 101.789 84.7524C101.789 84.7524 67.3951 99.4435 46.8555 112.12" fill="#010101"/>
<path opacity="0.4" d="M145.735 82.5037C142.989 81.438 140.839 84.6367 141.556 87.7174C142.273 90.7981 148.721 94.2329 148.363 105.49C148.124 114.73 146.094 118.521 146.094 118.521L141.556 112.835C141.556 112.835 140.839 100.039 139.287 98.1432C137.735 96.2471 132.838 92.8114 130.927 91.0342C129.016 89.2569 133.076 86.8878 132.838 83.5702C132.599 80.3715 134.868 73.974 134.868 73.974L145.735 82.5037ZM162.335 132.975C162.097 141.86 164.127 155.011 164.963 161.292C165.799 167.57 166.873 168.044 164.963 170.888C163.052 173.613 160.544 178.116 160.544 178.116L152.303 177.404C152.303 177.404 158.872 169.11 159.23 167.57C159.588 166.031 155.886 154.301 155.886 154.301L162.335 132.975ZM146.452 50.0393C148.124 53.7102 150.153 55.3694 153.378 56.4368C155.289 57.1475 162.812 58.0951 165.799 54.7775C167.111 53.2372 166.276 49.0908 166.276 49.0908L159.468 54.5406L150.273 52.8822L149.198 50.1573L146.452 50.0393Z" fill="#010101"/>
<path d="M147.17 58.2158C150.275 60.2308 158.038 62.1261 160.187 62.4819C162.337 62.9549 165.8 60.2308 167.472 59.5201C169.264 58.6905 172.369 58.2158 175.951 61.4154C176.31 61.7711 175.115 63.3107 175.115 63.3107C174.995 63.1926 174.279 63.1926 173.323 62.718C172.368 62.245 171.532 61.8892 170.099 62.0072C164.128 62.7188 163.172 64.7321 157.919 63.5468C152.664 62.3614 151.35 61.4146 146.215 61.6515" fill="#8AC640"/>
<path d="M147.17 58.2158C150.275 60.2308 158.038 62.1261 160.187 62.4819C162.337 62.9549 165.8 60.2308 167.472 59.5201C169.264 58.6905 172.369 58.2158 175.951 61.4154C176.31 61.7711 175.115 63.3107 175.115 63.3107C174.995 63.1926 174.279 63.1926 173.323 62.718C172.368 62.245 171.532 61.8892 170.099 62.0072C164.128 62.7188 163.172 64.7321 157.919 63.5468C152.664 62.3614 151.35 61.4146 146.215 61.6515" stroke="#010101" stroke-width="1.141" stroke-miterlimit="10" stroke-linejoin="round"/>
<path d="M146.097 58.5708C150.038 60.23 157.681 62.0073 159.83 62.4811C161.979 62.9549 165.443 60.8219 167.115 59.7562C170.101 57.8601 173.922 59.4004 175.714 61.4146C176.907 62.718 177.386 63.5476 177.386 63.9026C177.386 64.3764 175.953 63.9026 175.953 63.9026C175.116 63.5468 174.161 63.4295 173.445 62.9541C172.49 62.4811 171.534 61.7703 170.102 61.8884C164.13 62.5999 162.936 64.6133 157.801 63.4287C152.666 62.2434 151.353 61.1777 145.859 61.5326" fill="#8AC640"/>
<path d="M127.587 169.225C127.349 168.989 127.825 168.752 127.587 168.752C126.035 168.752 123.885 167.568 122.69 165.909C117.555 158.564 110.031 153.706 96.4175 154.061C75.9961 154.534 67.8752 146.242 66.3233 130.366C65.4879 121.717 63.0991 113.305 58.2024 108.566L55.3359 110.343C60.8292 115.081 62.6215 122.783 63.8147 133.328C65.7259 149.203 78.6238 156.55 93.67 156.786C109.315 157.023 114.927 160.223 120.778 168.042C122.689 170.53 124.839 171.359 126.511 171.714L127.587 169.225Z" fill="#010101"/>
<path opacity="0.4" d="M182.999 93.0479C183.358 94.8251 184.313 98.2608 186.224 99.9191C187.061 100.749 187.18 100.986 186.463 100.986C185.746 100.986 180.491 100.749 180.491 100.749L179.059 98.2608L182.999 93.0479Z" fill="#010101"/>
</g>
</g>
<defs>
<clipPath id="clip0_1118_160">
<rect width="256" height="256" fill="white"/>
</clipPath>
<clipPath id="clip1_1118_160">
<rect width="180" height="207" fill="white" transform="translate(21 24)"/>
</clipPath>
</defs>
</svg>
